<?xml version="1.0" encoding="UTF-8"?>
<svg width="144.5mm" height="144.5mm" version="1.1" viewBox="0 0 511.99998 511.99998" xmlns="http://www.w3.org/2000/svg">
 <g transform="translate(-132.39 -111.21)">
  <rect x="132.39" y="111.21" width="512" height="512" fill="#ffbc21"/>
  <path transform="translate(132.39 111.21)" d="m251 17c-72.902 0-128.65 36.098-132 132-3.3461 95.902 14.952 142.05-89.314 257-11.393 12.56-21.249 25.437-29.686 38.459v67.541h512v-76.58c-7.0392-9.8646-14.908-19.691-23.686-29.42-108.89-120.68-104.82-160.8-105.31-257-0.49237-96.195-59.098-132-132-132z" fill="#212121"/>
  <path d="m388 392.36a191.62 191.62 0 0 0 -191.62 191.62 191.62 191.62 0 0 0 1.6449 23.145h380.03a191.62 191.62 0 0 0 1.5627 -23.145 191.62 191.62 0 0 0 -191.62 -191.62z" fill="#fff"/>
  <g transform="matrix(.77566 0 0 1.0019 76.951 37.137)">
   <circle cx="457.75" cy="225.08" r="53.134" fill="#fff"/>
  </g>
  <g transform="matrix(.79053 0 0 1.0496 -20.187 26.503)">
   <circle cx="457.75" cy="225.08" r="53.134" fill="#fff"/>
  </g>
  <path transform="translate(132.39 111.21)" d="m258.48 192.77c-58.698 0-118.05 6.2474-140.15 18.742-0.19143 11.497-0.66167 22.558-1.8652 33.525 26.791 41.072 117.27 98.258 139.14 97.373 21.265-0.86011 102.6-53.914 133.76-94.17-3.0537-13.609-4.5999-27.233-5.4004-41.734-25.515-9.1536-75.244-13.736-125.48-13.736z" fill="#212121"/>
  <path d="m278.44 344.98c-8.6207 27.466 89.303 92.46 109.46 91.644 20.161-0.81545 112.32-64.178 109.46-91.644-2.8604-27.466-210.31-27.466-218.93 0z" fill="#ffbc21"/>
  <g transform="matrix(.33216 0 0 .33216 279.96 196.36)">
   <circle cx="457.75" cy="225.08" r="53.134"/>
  </g>
  <g transform="matrix(.40941 0 0 .40941 155.68 179.08)">
   <circle cx="457.75" cy="225.08" r="53.134"/>
  </g>
 </g>
</svg>
